# xmcd
#
# Track frame offsets:
#	150
#	34875
#	57250
#	83250
#	120075
#	149325
#	178575
#	214025
#	232800
#
# Disc length: 3439 seconds
#
# Revision: 1
# Processed by: cddbd v1.5.2PL0 Copyright (c) Steve Scherf et al.
# Submitted via: audiograbber 1.83.01
#
DISCID=680d6d09
DTITLE=Various Artist - Club Hits Special CD2
DYEAR=1900
DGENRE=Dance
TTITLE0=Divine - Walk like a man
TTITLE1=Ganymed - It takes me higher
TTITLE2=Ultrmatix - Sacrifice (Ultimate Dance Mix)
TTITLE3=Hazell Dean - Searchin´
TTITLE4=Lovely - I´ll get over you (Dee´s Journey Mix)
TTITLE5=Limahl - Too shy ´92 (Extended Play)
TTITLE6=Bolero - I wish
TTITLE7=Candy Flip - Strawberry Fields Forever
TTITLE8=Hyped Brothers and a Dog - Doo Doo Brown (Club Mix)
EXTD=
EXTT0=
EXTT1=
EXTT2=
EXTT3=
EXTT4=
EXTT5=
EXTT6=
EXTT7=
EXTT8=
PLAYORDER=
